# xmcd CD database file
#
# Track frame offsets:
#	150
#	14000
#	25750
#	41175
#	52500
#	65600
#	79575
#	93950
#	106100
#	118850
#
# Disc length: 1731 seconds
#
# Revision: 0
# Processed by: cddbd v1.4PL0 Copyright (c) Steve Scherf et al.
# Submitted via: CDex 1.50
#
DISCID=7506c10a
DTITLE=Elmore James - Rollin' and Tumblin'
DYEAR=1900
DGENRE=Blues
TTITLE0=Dust My Broom
TTITLE1=Look on Yonder Wall
TTITLE2=It Hurts Me Too
TTITLE3=Comin' Home
TTITLE4=The Sky Is Cryin'
TTITLE5=Standin' at Crossroads
TTITLE6=Hand in Hand
TTITLE7=Rollin' and Tumblin'
TTITLE8=Mean Mistreatin' Mama
TTITLE9=I Done Somebody Wrong
EXTD=
EXTT0=
EXTT1=
EXTT2=
EXTT3=
EXTT4=
EXTT5=
EXTT6=
EXTT7=
EXTT8=
EXTT9=
PLAYORDER=
